<?xml version="1.0" standalone="no"?>
<!DOCTYPE svg PUBLIC "-//W3C//DTD SVG 20010904//EN"
 "http://www.w3.org/TR/2001/REC-SVG-20010904/DTD/svg10.dtd">
<svg version="1.0" xmlns="http://www.w3.org/2000/svg"
 width="16.000000pt" height="16.000000pt" viewBox="0 0 16.000000 16.000000"
 preserveAspectRatio="xMidYMid meet">
<metadata>
Created by potrace 1.11, written by Peter Selinger 2001-2013
</metadata>
<g transform="translate(0.000000,16.000000) scale(0.006154,-0.006154)"
fill="#000000" stroke="none">
<path d="M165 2587 c-58 -15 -138 -98 -153 -159 -17 -67 -17 -2189 0 -2256 16
-65 95 -144 160 -160 67 -17 2189 -17 2256 0 65 16 144 95 160 160 17 67 17
2189 0 2256 -16 65 -95 144 -160 160 -62 16 -2203 15 -2263 -1z m688 -343 c18
-9 42 -25 54 -37 l22 -20 58 26 c97 42 163 52 368 51 215 0 270 -10 390 -72
96 -49 221 -174 263 -264 69 -143 67 -116 67 -913 l0 -720 -85 0 c-73 0 -94 4
-143 29 -38 18 -69 42 -88 69 -58 80 -59 90 -59 670 0 329 -4 553 -11 591 -5
34 -22 84 -37 111 -22 40 -38 55 -82 77 -108 54 -325 63 -425 19 -65 -29 -98
-61 -127 -125 l-23 -51 -5 -695 -5 -695 -86 1 c-157 1 -263 74 -289 197 -8 36
-10 308 -8 907 l3 855 35 7 c54 10 177 0 213 -18z"/>
</g>
</svg>
